<?xml version="1.0" encoding="UTF-8" standalone="no"?>
<!-- Created with Inkscape (http://www.inkscape.org/) -->

<svg
   xmlns:dc="http://purl.org/dc/elements/1.1/"
   xmlns:cc="http://creativecommons.org/ns#"
   xmlns:rdf="http://www.w3.org/1999/02/22-rdf-syntax-ns#"
   xmlns:svg="http://www.w3.org/2000/svg"
   xmlns="http://www.w3.org/2000/svg"
   xmlns:sodipodi="http://sodipodi.sourceforge.net/DTD/sodipodi-0.dtd"
   xmlns:inkscape="http://www.inkscape.org/namespaces/inkscape"
   width="20"
   height="16"
   viewBox="0 0 20 16"
   id="svg2"
   version="1.1"
   inkscape:version="0.91 r13725"
   sodipodi:docname="city-marker.svg">
  <defs
     id="defs4" />
  <sodipodi:namedview
     id="base"
     pagecolor="#ffffff"
     bordercolor="#666666"
     borderopacity="1.0"
     inkscape:pageopacity="0.0"
     inkscape:pageshadow="2"
     inkscape:zoom="32"
     inkscape:cx="3.6176204"
     inkscape:cy="5.0498837"
     inkscape:document-units="px"
     inkscape:current-layer="layer1"
     showgrid="false"
     units="px"
     inkscape:window-width="1440"
     inkscape:window-height="897"
     inkscape:window-x="-8"
     inkscape:window-y="-8"
     inkscape:window-maximized="1" />
  <metadata
     id="metadata7">
    <rdf:RDF>
      <cc:Work
         rdf:about="">
        <dc:format>image/svg+xml</dc:format>
        <dc:type
           rdf:resource="http://purl.org/dc/dcmitype/StillImage" />
        <dc:title />
      </cc:Work>
    </rdf:RDF>
  </metadata>
  <g
     inkscape:label="Layer 1"
     inkscape:groupmode="layer"
     id="layer1"
     transform="translate(0,-1036.3622)">
    <path
       style="fill:#3069f9;fill-opacity:1;stroke:#000000;stroke-width:0.39990431;stroke-miterlimit:4;stroke-dasharray:none;stroke-opacity:1"
       d="m 10,1036.6754 -1.2250055,1.4767 -1.2250061,1.4647 0,5.582 -2.4500121,0 0,-3.979 0,-0.4567 -0.9800049,0 0,0.4567 -0.9800048,0 0,-0.4567 -0.9800049,0 0,0.4567 -0.9800047,0 0,-0.4567 -0.98000484,0 0,0.4567 0,10.9424 19.60009584,0 0,-10.9424 0,-0.4567 -0.980005,0 0,0.4567 -0.980004,0 0,-0.4567 -0.980005,0 0,0.4567 -0.980005,0 0,-0.4567 -0.980005,0 0,0.4567 0,3.979 -2.450011,0 0,-5.582 -1.225006,-1.4647 z"
       id="rect4134"
       inkscape:connector-curvature="0"
       sodipodi:nodetypes="cccccccccccccccccccccccccccccccccccc" />
  </g>
</svg>
